<?xml version="1.0" standalone="no"?>
<!DOCTYPE svg PUBLIC "-//W3C//DTD SVG 20010904//EN" "http://www.w3.org/TR/2001/REC-SVG-20010904/DTD/svg10.dtd">
<!-- Created using Krita: https://krita.org -->
<svg xmlns="http://www.w3.org/2000/svg" 
    xmlns:xlink="http://www.w3.org/1999/xlink"
    xmlns:krita="http://krita.org/namespaces/svg/krita"
    xmlns:sodipodi="http://sodipodi.sourceforge.net/DTD/sodipodi-0.dtd"
    width="700.56pt"
    height="702pt"
    viewBox="0 0 700.56 702">
<defs/>
<g id="group0" transform="matrix(0.1 0 0 -0.1 -195.12 779.16)" fill="none">
  <path id="shape0" transform="translate(10, 0)" fill="#000000" stroke-opacity="0" stroke="#000000" stroke-width="0" stroke-linecap="square" stroke-linejoin="bevel" d="M0 4320L0 0L5440 0L10880 0L10880 4320L10880 8640L5440 8640L0 8640ZM5467 7754C5475 7734 5454 7720 5415 7720C5380 7720 5359 7736 5367 7756C5375 7777 5459 7775 5467 7754ZM5175 7735C5175 7718 5168 7715 5126 7715C5095 7715 5075 7720 5072 7728C5067 7744 5107 7760 5145 7757C5168 7756 5175 7750 5175 7735ZM5758 7737C5762 7715 5739 7706 5695 7714C5669 7719 5660 7726 5660 7741C5660 7759 5666 7761 5707 7758C5743 7756 5756 7751 5758 7737ZM6035 7717C6061 7697 6045 7680 6001 7680C5962 7680 5933 7700 5945 7720C5954 7734 6013 7732 6035 7717ZM4888 7698C4891 7681 4874 7673 4820 7667C4801 7666 4794 7670 4792 7687C4788 7711 4806 7719 4855 7717C4874 7716 4886 7709 4888 7698ZM6293 7669C6319 7662 6330 7654 6330 7640C6330 7624 6323 7620 6297 7620C6256 7620 6224 7641 6233 7664C6240 7683 6243 7683 6293 7669ZM4606 7649C4617 7630 4584 7607 4543 7606C4516 7605 4505 7609 4505 7620C4505 7649 4590 7674 4606 7649ZM5895 7586C6587 7481 7150 7222 7660 6774C8207 6293 8577 5648 8720 4926C8758 4736 8771 4605 8777 4360C8784 4041 8763 3815 8700 3540C8441 2415 7624 1507 6530 1129C6329 1059 6078 1002 5830 968C5702 951 5187 951 5060 969C4495 1046 4032 1219 3587 1517C2978 1926 2516 2532 2285 3224C2169 3575 2118 3899 2118 4290C2118 4826 2225 5280 2464 5765C2620 6079 2805 6340 3055 6599C3422 6978 3863 7260 4355 7430C4590 7511 4890 7577 5121 7600C5264 7613 5776 7604 5895 7586ZM6588 7579C6612 7570 6618 7542 6596 7534C6576 7526 6510 7556 6510 7573C6510 7602 6523 7603 6588 7579ZM4328 7557C4332 7538 4268 7505 4244 7514C4219 7523 4229 7551 4263 7565C4303 7583 4324 7580 4328 7557ZM6880 7450C6880 7425 6859 7420 6822 7436C6786 7451 6770 7478 6790 7490C6809 7502 6880 7470 6880 7450ZM4058 7448C4062 7429 4014 7400 3980 7400C3946 7400 3955 7439 3993 7455C4032 7473 4054 7470 4058 7448ZM7109 7353C7147 7331 7151 7300 7116 7300C7086 7300 7034 7342 7044 7358C7054 7375 7073 7373 7109 7353ZM3798 7318C3802 7297 3740 7264 3716 7273C3691 7283 3697 7298 3733 7320C3770 7343 3793 7342 3798 7318ZM7364 7199C7396 7174 7398 7150 7368 7150C7338 7150 7284 7193 7294 7208C7305 7226 7334 7222 7364 7199ZM3547 7173C3554 7154 3506 7110 3478 7110C3450 7110 3456 7146 3488 7169C3521 7194 3539 7195 3547 7173ZM7590 7038C7624 7013 7630 6980 7601 6980C7578 6980 7530 7017 7530 7035C7530 7046 7539 7054 7558 7059C7560 7060 7574 7050 7590 7038ZM3314 7004C3321 6986 3275 6940 3249 6940C3218 6940 3218 6959 3249 6990C3282 7023 3305 7028 3314 7004ZM7822 6839C7851 6811 7852 6807 7837 6792C7822 6777 7818 6778 7790 6805C7758 6836 7750 6870 7776 6870C7784 6870 7805 6856 7822 6839ZM3090 6815C3101 6802 3098 6794 3075 6770C3043 6737 3022 6732 3013 6756C3010 6765 3019 6783 3036 6801C3068 6834 3073 6836 3090 6815ZM8024 6639C8054 6604 8056 6592 8034 6583C8024 6579 8007 6589 7987 6608C7961 6634 7959 6641 7970 6654C7988 6676 7995 6674 8024 6639ZM2890 6601C2890 6572 2847 6525 2827 6533C2803 6542 2806 6561 2835 6593C2865 6625 2890 6628 2890 6601ZM8214 6415C8244 6369 8225 6333 8188 6366C8157 6395 8147 6419 8160 6435C8175 6452 8194 6445 8214 6415ZM2710 6374C2710 6352 2655 6296 2642 6304C2623 6316 2628 6345 2654 6373C2679 6400 2710 6401 2710 6374ZM8379 6181C8407 6142 8406 6118 8379 6122C8351 6126 8315 6173 8323 6194C8333 6219 8357 6213 8379 6181ZM2538 6133C2540 6122 2530 6100 2517 6084C2496 6060 2490 6058 2476 6069C2464 6079 2463 6087 2471 6104C2500 6159 2532 6173 2538 6133ZM8524 5935C8540 5910 8545 5878 8534 5867C8523 5856 8499 5872 8484 5902C8457 5955 8492 5984 8524 5935ZM2396 5899C2406 5881 2369 5810 2349 5810C2320 5810 2318 5827 2340 5870C2360 5909 2382 5921 2396 5899ZM8656 5664C8673 5624 8669 5600 8645 5600C8627 5600 8596 5665 8604 5686C8614 5712 8641 5700 8656 5664ZM2267 5603C2263 5583 2254 5559 2245 5551C2232 5538 2228 5538 2216 5550C2195 5572 2223 5640 2252 5640C2270 5640 2272 5635 2267 5603ZM8761 5390C8770 5360 8770 5346 8762 5338C8745 5321 8725 5335 8712 5376C8699 5418 8703 5430 8730 5430C8744 5430 8753 5418 8761 5390ZM2168 5344C2173 5310 2153 5270 2130 5270C2107 5270 2104 5291 2121 5339C2134 5375 2163 5378 2168 5344ZM8840 5115C8853 5074 8848 5050 8825 5050C8808 5050 8790 5088 8790 5126C8790 5165 8826 5158 8840 5115ZM2091 5078C2096 5030 2081 4990 2060 4990C2044 4990 2040 4997 2040 5021C2040 5038 2045 5060 2050 5071C2062 5092 2089 5097 2091 5078ZM8888 4858C8895 4851 8900 4829 8900 4807C8900 4773 8898 4769 8878 4772C8860 4774 8854 4783 8852 4808C8847 4864 8862 4884 8888 4858ZM2040 4761C2040 4722 2020 4693 2000 4705C1989 4712 1986 4783 1997 4793C2000 4797 2012 4800 2022 4800C2036 4800 2040 4792 2040 4761ZM8928 4527C8931 4481 8930 4479 8908 4482C8890 4484 8884 4492 8882 4518C8878 4563 8886 4582 8907 4578C8921 4576 8926 4563 8928 4527ZM2010 4466C2010 4418 2002 4406 1976 4416C1965 4420 1960 4435 1960 4459C1960 4501 1965 4510 1992 4510C2007 4510 2010 4502 2010 4466ZM8938 4251C8935 4213 8932 4205 8915 4205C8899 4205 8894 4213 8892 4243C8888 4285 8904 4312 8926 4303C8937 4299 8940 4285 8938 4251ZM2008 4166C2006 4133 2001 4125 1985 4125C1969 4125 1964 4133 1962 4169C1960 4197 1963 4216 1972 4221C1994 4235 2011 4209 2008 4166ZM8926 3956C8918 3915 8905 3903 8884 3921C8868 3934 8875 4000 8894 4012C8915 4026 8933 3994 8926 3956ZM2018 3928C2033 3913 2034 3844 2020 3835C2001 3823 1980 3852 1980 3890C1980 3939 1993 3953 2018 3928ZM8884 3681C8883 3635 8865 3614 8842 3632C8834 3639 8831 3654 8836 3674C8850 3742 8886 3747 8884 3681ZM2074 3601C2081 3568 2080 3556 2069 3550C2050 3538 2032 3556 2024 3595C2011 3665 2059 3671 2074 3601ZM8826 3425C8836 3400 8810 3339 8792 3342C8771 3346 8766 3377 8779 3413C8790 3442 8817 3449 8826 3425ZM2146 3313C2154 3272 2139 3250 2116 3269C2094 3287 2084 3350 2101 3361C2120 3373 2138 3354 2146 3313ZM8737 3108C8720 3067 8709 3058 8691 3069C8675 3080 8685 3133 8707 3156C8721 3169 8725 3170 8737 3157C8750 3145 8749 3138 8737 3108ZM2237 3046C2246 3018 2247 3003 2240 2996C2216 2972 2170 3039 2184 3076C2194 3103 2222 3087 2237 3046ZM8640 2875C8640 2845 8610 2800 8590 2800C8566 2800 8564 2820 8585 2860C8601 2892 8640 2902 8640 2875ZM2346 2796C2364 2767 2361 2725 2341 2725C2322 2725 2286 2786 2294 2805C2302 2828 2328 2823 2346 2796ZM8510 2613C8510 2584 8466 2536 8447 2543C8425 2551 8426 2558 8450 2598C8472 2633 8510 2643 8510 2613ZM2479 2541C2506 2504 2507 2470 2482 2470C2459 2470 2424 2531 2433 2554C2442 2578 2456 2574 2479 2541ZM8360 2368C8360 2348 8318 2290 8304 2290C8272 2290 8278 2336 8315 2374C8331 2390 8360 2386 8360 2368ZM2639 2294C2666 2260 2666 2230 2641 2230C2619 2230 2575 2294 2585 2310C2596 2327 2618 2321 2639 2294ZM8187 2134C8192 2119 8142 2060 8125 2060C8100 2060 8101 2090 8127 2120C8152 2150 8180 2156 8187 2134ZM2819 2064C2843 2033 2847 2000 2825 2000C2809 2000 2760 2049 2760 2066C2760 2098 2793 2097 2819 2064ZM7997 1914C8002 1899 7952 1840 7934 1840C7906 1840 7907 1871 7936 1901C7964 1930 7990 1936 7997 1914ZM3024 1841C3044 1819 3040 1790 3016 1790C3008 1790 2990 1804 2976 1821C2955 1845 2952 1855 2961 1866C2974 1882 2995 1873 3024 1841ZM7787 1713C7793 1697 7741 1640 7720 1640C7696 1640 7699 1673 7726 1701C7757 1734 7778 1738 7787 1713ZM3232 1651C3263 1623 3264 1620 3249 1605C3233 1589 3230 1589 3201 1611C3172 1632 3162 1658 3177 1673C3188 1685 3199 1681 3232 1651ZM7540 1489C7503 1457 7477 1455 7472 1482C7470 1492 7483 1508 7507 1524C7541 1547 7546 1548 7560 1534C7573 1520 7572 1516 7540 1489ZM3460 1472C3480 1455 3490 1439 3486 1432C3474 1413 3445 1418 3416 1445C3393 1466 3390 1473 3400 1485C3417 1505 3421 1504 3460 1472ZM7320 1376C7320 1374 7323 1365 7326 1357C7333 1339 7266 1295 7245 1304C7220 1313 7228 1337 7263 1359C7292 1378 7320 1386 7320 1376ZM3701 1319C3750 1284 3734 1247 3681 1275C3646 1293 3636 1306 3644 1325C3651 1345 3667 1344 3701 1319ZM7075 1211C7075 1192 7014 1156 6995 1164C6971 1173 6978 1198 7008 1214C7040 1233 7075 1231 7075 1211ZM3955 1183C3990 1166 4002 1136 3978 1127C3960 1121 3890 1158 3890 1174C3890 1204 3906 1206 3955 1183ZM6808 1088C6804 1060 6736 1030 6718 1048C6698 1068 6746 1108 6793 1109C6806 1110 6811 1104 6808 1088ZM4225 1066C4260 1051 4272 1024 4247 1014C4228 1007 4160 1038 4160 1053C4160 1083 4176 1086 4225 1066ZM6537 994C6540 986 6538 974 6533 969C6517 953 6464 942 6449 951C6421 968 6464 1005 6518 1009C6525 1010 6533 1003 6537 994ZM4505 974C4533 967 4544 945 4526 931C4512 919 4445 934 4435 951C4425 965 4451 992 4468 985C4475 982 4492 977 4505 974ZM6257 914C6265 892 6249 880 6205 877C6174 876 6165 879 6162 893C6156 924 6245 945 6257 914ZM4813 891C4833 871 4802 852 4763 860C4714 871 4700 887 4723 905C4742 919 4793 911 4813 891ZM5968 867C5986 846 5966 829 5919 827C5881 825 5875 828 5875 845C5875 859 5884 867 5905 871C5952 881 5957 881 5968 867ZM5102 847C5115 825 5089 809 5051 816C5004 824 4993 835 5010 855C5020 867 5033 870 5059 865C5079 861 5098 853 5102 847ZM5391 828C5403 809 5381 790 5345 790C5304 790 5282 813 5301 836C5316 854 5378 849 5391 828ZM5677 839C5699 817 5679 800 5635 800C5587 800 5571 813 5590 835C5605 853 5661 855 5677 839Z" sodipodi:nodetypes="ccccccccccccccccccccccccccccccccccccccccccccccccccccccccccccccccccccccccccccccccccccccccccccccccccccccccccccccccccccccccccccccccccccccccccccccccccccccccccccccccccccccccccccccccccccccccccccccccccccccccccccccccccccccccccccccccccccccccccccccccccccccccccccccccccccccccccccccccccccccccccccccccccccccccccccccccccccccccccccccccccccccccccccccccccccccccccccccccc"/>
  <path id="shape1" transform="translate(2275.86085354969, 1102.54954997445)" fill="#000000" stroke-opacity="0" stroke="#000000" stroke-width="0" stroke-linecap="square" stroke-linejoin="bevel" d="M2844.14 6342.45C2104.14 6259.45 1448.14 5943.45 924.139 5417.45C386.139 4879.45 66.1391 4180.45 5.13914 3412.45C-7.86086 3259.45 5.13914 2922.45 29.1391 2747.45C95.1391 2273.45 264.139 1824.45 523.139 1435.45C687.139 1189.45 793.139 1063.45 1009.14 859.451C1293.14 592.451 1573.14 408.451 1934.14 252.451C2606.14 -36.5495 3383.14 -79.5495 4099.14 134.451C4891.14 371.451 5569.14 920.451 5973.14 1653.45C6106.14 1893.45 6231.14 2223.45 6288.14 2477.45C6344.14 2734.45 6358.14 2863.45 6358.14 3137.45C6358.14 3277.45 6352.14 3442.45 6346.14 3502.45C6276.14 4127.45 6046.14 4687.45 5655.14 5177.45C5552.14 5306.45 5303.14 5554.45 5169.14 5661.45C4679.14 6051.45 4086.14 6291.45 3474.14 6346.45C3321.14 6360.45 2987.14 6358.45 2844.14 6342.45ZM3150.14 6036.45C3165.14 6020.45 3166.14 6013.45 3156.14 5999.45C3122.14 5952.45 3114.14 5916.45 3114.14 5800.45C3114.14 5708.45 3118.14 5674.45 3132.14 5647.45C3165.14 5580.45 3248.14 5571.45 3285.14 5631.45C3301.14 5658.45 3304.14 5682.45 3304.14 5802.45C3304.14 5925.45 3301.14 5946.45 3284.14 5972.45C3245.14 6031.45 3266.14 6057.45 3354.14 6057.45C3382.14 6057.45 3414.14 6052.45 3425.14 6047.45C3449.14 6034.45 3450.14 6000.45 3427.14 5974.45C3412.14 5958.45 3408.14 5928.45 3403.14 5793.45C3396.14 5593.45 3383.14 5561.45 3291.14 5522.45C3249.14 5505.45 3129.14 5502.45 3087.14 5518.45C3052.14 5531.45 3005.14 5574.45 2991.14 5607.45C2985.14 5621.45 2978.14 5705.45 2975.14 5793.45C2970.14 5928.45 2966.14 5958.45 2952.14 5974.45C2942.14 5985.45 2934.14 6003.45 2934.14 6015.45C2934.14 6047.45 2961.14 6056.45 3050.14 6057.45C3119.14 6057.45 3134.14 6054.45 3150.14 6036.45ZM2733.14 6010.45C2752.14 5994.45 2752.14 5988.45 2741.14 5949.45C2731.14 5909.45 2733.14 5892.45 2766.14 5759.45C2797.14 5638.45 2808.14 5608.45 2834.14 5582.45C2887.14 5527.45 2868.14 5501.45 2755.14 5471.45C2657.14 5446.45 2630.14 5466.45 2653.14 5547.45C2661.14 5573.45 2648.14 5656.45 2634.14 5671.45C2629.14 5676.45 2594.14 5672.45 2554.14 5662.45L2482.14 5644.45L2488.14 5605.45C2496.14 5554.45 2519.14 5510.45 2544.14 5497.45C2566.14 5485.45 2571.14 5445.45 2552.14 5429.45C2531.14 5413.45 2434.14 5387.45 2392.14 5387.45C2345.14 5387.45 2337.14 5403.45 2353.14 5457.45C2363.14 5491.45 2360.14 5513.45 2327.14 5644.45C2295.14 5773.45 2286.14 5796.45 2257.14 5826.45C2239.14 5845.45 2224.14 5866.45 2224.14 5873.45C2224.14 5893.45 2262.14 5914.45 2329.14 5931.45C2401.14 5950.45 2415.14 5951.45 2438.14 5934.45C2454.14 5922.45 2455.14 5916.45 2443.14 5879.45C2433.14 5846.45 2433.14 5826.45 2443.14 5782.45C2450.14 5752.45 2460.14 5727.45 2466.14 5727.45C2485.14 5727.45 2599.14 5758.45 2607.14 5766.45C2621.14 5779.45 2585.14 5872.45 2554.14 5902.45C2516.14 5938.45 2516.14 5962.45 2554.14 5982.45C2578.14 5994.45 2672.14 6022.45 2705.14 6026.45C2709.14 6027.45 2721.14 6019.45 2733.14 6010.45ZM3754.14 6004.45L3819.14 5982.45L3820.14 5927.45C3822.14 5873.45 3846.14 5761.45 3859.14 5749.45C3869.14 5740.45 3960.14 5843.45 3982.14 5887.45C3997.14 5917.45 4004.14 5922.45 4039.14 5925.45C4094.14 5929.45 4149.14 5900.45 4149.14 5867.45C4149.14 5847.45 4142.14 5841.45 4104.14 5830.45C4067.14 5820.45 4043.14 5801.45 3967.14 5720.45C3891.14 5640.45 3873.14 5614.45 3864.14 5575.45C3855.14 5539.45 3855.14 5520.45 3865.14 5494.45C3883.14 5443.45 3873.14 5427.45 3822.14 5427.45C3775.14 5427.45 3689.14 5450.45 3668.14 5468.45C3647.14 5486.45 3651.14 5517.45 3678.14 5538.45C3692.14 5549.45 3710.14 5579.45 3719.14 5606.45C3735.14 5654.45 3734.14 5659.45 3708.14 5769.45C3678.14 5895.45 3667.14 5921.45 3630.14 5956.45C3601.14 5983.45 3598.14 5997.45 3616.14 6015.45C3634.14 6033.45 3681.14 6029.45 3754.14 6004.45ZM2343.14 4941.45C2463.14 4882.45 2629.14 4700.45 2683.14 4569.45C2698.14 4533.45 2705.14 4531.45 2765.14 4552.45C2866.14 4588.45 3057.14 4619.45 3174.14 4620.45C3295.14 4620.45 3461.14 4595.45 3584.14 4557.45C3620.14 4546.45 3652.14 4537.45 3656.14 4537.45C3660.14 4537.45 3673.14 4556.45 3685.14 4580.45C3762.14 4732.45 3909.14 4887.45 4033.14 4946.45C4101.14 4978.45 4117.14 4982.45 4189.14 4982.45C4261.14 4981.45 4276.14 4978.45 4333.14 4947.45C4483.14 4866.45 4595.14 4661.45 4644.14 4374.45C4669.14 4224.45 4687.14 3968.45 4682.14 3838.45L4677.14 3734.45L4732.14 3608.45C4798.14 3454.45 4854.14 3287.45 4886.14 3147.45C4905.14 3061.45 4909.14 3014.45 4909.14 2887.45C4909.14 2735.45 4908.14 2730.45 4872.14 2625.45C4796.14 2404.45 4697.14 2250.45 4518.14 2070.45L4397.14 1949.45L4390.14 1881.45C4372.14 1709.45 4273.14 1579.45 4087.14 1486.45C3956.14 1420.45 3769.14 1368.45 3600.14 1351.45L3534.14 1344.45L3487.14 1274.45C3403.14 1151.45 3298.14 1100.45 3152.14 1110.45C3100.14 1113.45 3058.14 1123.45 3027.14 1138.45C2969.14 1166.45 2897.14 1236.45 2864.14 1296.45L2839.14 1341.45L2714.14 1359.45C2248.14 1425.45 1975.14 1628.45 1974.14 1907.45C1974.14 1950.45 1971.14 1954.45 1914.14 2002.45C1683.14 2195.45 1488.14 2533.45 1454.14 2798.45C1429.14 2999.45 1505.14 3326.45 1650.14 3645.45C1684.14 3719.45 1684.14 3720.45 1684.14 3871.45C1684.14 4368.45 1769.14 4703.45 1939.14 4872.45C2028.14 4961.45 2095.14 4989.45 2204.14 4982.45C2253.14 4979.45 2288.14 4968.45 2343.14 4941.45ZM932.139 2615.45C934.139 2597.45 929.139 2585.45 917.139 2579.45C907.139 2574.45 817.139 2550.45 717.139 2526.45C566.139 2491.45 533.139 2486.45 520.139 2496.45C501.139 2512.45 499.139 2543.45 516.139 2554.45C540.139 2569.45 859.139 2645.45 894.139 2644.45C924.139 2642.45 929.139 2638.45 932.139 2615.45ZM5669.14 2514.45C5833.14 2389.45 5848.14 2370.45 5820.14 2332.45C5807.14 2314.45 5796.14 2313.45 5657.14 2316.45L5509.14 2319.45L5620.14 2233.45C5682.14 2186.45 5735.14 2140.45 5738.14 2131.45C5747.14 2108.45 5736.14 2079.45 5716.14 2068.45C5693.14 2056.45 5303.14 2076.45 5286.14 2090.45C5279.14 2096.45 5274.14 2112.45 5276.14 2126.45L5279.14 2152.45L5432.14 2149.45C5515.14 2147.45 5584.14 2149.45 5584.14 2154.45C5583.14 2158.45 5536.14 2198.45 5477.14 2242.45C5360.14 2331.45 5341.14 2356.45 5369.14 2387.45C5385.14 2405.45 5396.14 2406.45 5535.14 2400.45C5617.14 2397.45 5684.14 2396.45 5684.14 2398.45C5684.14 2401.45 5632.14 2441.45 5569.14 2487.45C5461.14 2567.45 5432.14 2600.45 5449.14 2626.45C5467.14 2656.45 5513.14 2633.45 5669.14 2514.45ZM1163.14 2019.45C1211.14 1967.45 1244.14 1888.45 1244.14 1825.45C1244.14 1756.45 1235.14 1730.45 1192.14 1682.45C1111.14 1589.45 964.139 1583.45 876.139 1667.45C837.139 1704.45 783.139 1796.45 786.139 1820.45C788.139 1835.45 833.139 1870.45 949.139 1944.45C1037.14 2001.45 1115.14 2047.45 1122.14 2047.45C1130.14 2047.45 1148.14 2034.45 1163.14 2019.45ZM5265.14 1764.45C5319.14 1735.45 5370.14 1663.45 5380.14 1601.45C5399.14 1474.45 5288.14 1347.45 5158.14 1347.45C5037.14 1347.45 4934.14 1453.45 4934.14 1577.45C4934.14 1653.45 5000.14 1746.45 5074.14 1776.45C5122.14 1795.45 5217.14 1789.45 5265.14 1764.45ZM1621.14 1442.45C1748.14 1378.45 1780.14 1209.45 1685.14 1104.45C1552.14 957.451 1317.14 1033.45 1297.14 1230.45C1292.14 1278.45 1295.14 1294.45 1318.14 1342.45C1375.14 1458.45 1503.14 1500.45 1621.14 1442.45ZM4670.14 1339.45C4682.14 1331.45 4882.14 1044.45 4890.14 1023.45C4893.14 1015.45 4891.14 999.451 4884.14 988.451C4867.14 956.451 4825.14 962.451 4664.14 1021.45C4584.14 1050.45 4517.14 1072.45 4515.14 1070.45C4512.14 1068.45 4543.14 1019.45 4583.14 961.451C4663.14 845.451 4670.14 814.451 4619.14 809.451C4591.14 807.451 4583.14 815.451 4482.14 963.451C4377.14 1114.45 4361.14 1150.45 4386.14 1175.45C4406.14 1195.45 4436.14 1189.45 4590.14 1133.45C4672.14 1104.45 4740.14 1083.45 4742.14 1087.45C4744.14 1091.45 4717.14 1134.45 4683.14 1183.45C4605.14 1294.45 4597.14 1312.45 4614.14 1332.45C4627.14 1348.45 4652.14 1351.45 4670.14 1339.45ZM2107.14 1103.45C2115.14 1095.45 2134.14 1024.45 2148.14 945.451C2163.14 866.451 2179.14 791.451 2184.14 777.451C2193.14 750.451 2186.14 739.451 2273.14 930.451C2301.14 992.451 2306.14 998.451 2330.14 995.451C2384.14 989.451 2382.14 971.451 2305.14 801.451C2265.14 714.451 2226.14 632.451 2218.14 620.451C2202.14 594.451 2153.14 588.451 2136.14 610.451C2131.14 616.451 2112.14 698.451 2094.14 790.451C2076.14 883.451 2058.14 955.451 2054.14 950.451C2051.14 946.451 2025.14 893.451 1998.14 834.451C1971.14 774.451 1941.14 721.451 1932.14 716.451C1910.14 704.451 1874.14 721.451 1874.14 743.451C1874.14 759.451 2020.14 1084.45 2036.14 1105.45C2050.14 1121.45 2089.14 1120.45 2107.14 1103.45ZM4137.14 1006.45C4145.14 993.451 4136.14 966.451 4099.14 888.451C4065.14 817.451 4054.14 783.451 4061.14 776.451C4067.14 770.451 4114.14 745.451 4165.14 719.451C4244.14 679.451 4259.14 668.451 4259.14 648.451C4259.14 599.451 4233.14 600.451 4124.14 651.451C4043.14 689.451 4020.14 696.451 4008.14 687.451C3991.14 672.451 3990.14 638.451 4005.14 586.451C4014.14 556.451 4014.14 544.451 4004.14 532.451C3988.14 513.451 3960.14 513.451 3945.14 531.451C3939.14 538.451 3905.14 625.451 3870.14 723.451C3803.14 912.451 3800.14 937.451 3848.14 937.451C3878.14 937.451 3886.14 927.451 3913.14 847.451C3926.14 811.451 3939.14 778.451 3943.14 774.451C3947.14 770.451 3979.14 825.451 4013.14 897.451C4071.14 1020.45 4076.14 1028.45 4101.14 1025.45C4115.14 1023.45 4132.14 1015.45 4137.14 1006.45ZM2677.14 896.451C2691.14 873.451 2659.14 791.451 2629.14 771.451C2583.14 741.451 2537.14 802.451 2579.14 837.451C2587.14 844.451 2594.14 855.451 2594.14 861.451C2594.14 867.451 2601.14 883.451 2610.14 895.451C2628.14 921.451 2661.14 921.451 2677.14 896.451ZM3190.14 841.451C3229.14 835.451 3248.14 815.451 3239.14 788.451C3234.14 772.451 3223.14 767.451 3176.14 765.451L3119.14 762.451L3109.14 595.451C3103.14 497.451 3094.14 423.451 3088.14 417.451C3081.14 410.451 3066.14 407.451 3053.14 409.451L3029.14 412.451L3029.14 584.451C3029.14 678.451 3026.14 758.451 3022.14 762.451C3019.14 765.451 2994.14 771.451 2967.14 775.451C2926.14 781.451 2918.14 786.451 2916.14 807.451C2914.14 820.451 2919.14 836.451 2927.14 842.451C2941.14 852.451 3122.14 852.451 3190.14 841.451Z" sodipodi:nodetypes="ccccccccccccccccccccccccccccccccccccccccccccccccccccccccccccccccccccccccccccccccccccccccccccccccccccccccccccccccccccccccccccccccccccccccccccccccccccccccccccccccccccccccccccccccccccccccccccccccccccccccccccccccccccccccccccccccccccc"/>
  <path id="shape2" transform="translate(3835, 2348.25650535447)" fill="#000000" stroke-opacity="0" stroke="#000000" stroke-width="0" stroke-linecap="square" stroke-linejoin="bevel" d="M539 3617.74C456 3579.74 376 3474.74 326 3336.74C263 3161.74 233 2946.74 234 2656.74L234 2466.74L180 2341.74C51 2041.74 0 1844.74 0 1646.74C0 1521.74 2 1512.74 38 1406.74C122 1165.74 278 948.744 487 783.744C524 754.744 544 732.744 540 723.744C513 652.744 533 552.744 591 477.744C679 362.744 863 286.744 1214 222.744L1359 195.744L1382 151.744C1452 20.7435 1576 -29.2565 1716 16.7435C1777 37.7435 1841 96.7435 1868 157.744L1887 198.744L1973 211.744C2115 232.744 2339 288.744 2429 324.744C2579 385.744 2652 446.744 2697 547.744C2713 584.744 2716 609.744 2713 668.744L2710 743.744L2790 811.744C2992 983.744 3132 1180.74 3211 1406.74C3251 1521.74 3257 1703.74 3225 1858.74C3198 1993.74 3130 2197.74 3063 2348.74L3012 2464.74L3014 2625.74C3021 3136.74 2909 3513.74 2723 3607.74C2678 3630.74 2662 3633.74 2609 3628.74C2568 3625.74 2530 3614.74 2497 3596.74C2435 3563.74 2336 3466.74 2283 3388.74C2244 3330.74 2182 3210.74 2172 3170.74C2168 3154.74 2162 3150.74 2148 3156.74C2094 3180.74 1954 3223.74 1878 3238.74C1814 3251.74 1743 3255.74 1620 3255.74C1431 3254.74 1312 3235.74 1164 3181.74L1084 3152.74L1068 3189.74C991 3377.74 858 3544.74 740 3601.74C682 3629.74 582 3637.74 539 3617.74ZM691 3490.74C747 3463.74 843 3360.74 895 3271.74C940 3194.74 967 3125.74 985 3037.74C991 3006.74 1000 2981.74 1004 2981.74C1009 2981.74 1055 3001.74 1106 3025.74C1432 3180.74 1852 3174.74 2177 3010.74C2209 2994.74 2239 2981.74 2244 2981.74C2249 2981.74 2256 3000.74 2260 3024.74C2295 3250.74 2492 3511.74 2629 3511.74C2662 3511.74 2674 3505.74 2707 3470.74C2828 3343.74 2885 3101.74 2891 2680.74L2895 2424.74L2941 2326.74C2994 2212.74 3009 2148.74 3026 1962.74L3038 1829.74L3075 1794.74C3233 1652.74 3056 1189.74 2741 922.744C2479 700.744 2178 581.744 1773 541.744C1653 529.744 1406 541.744 1279 566.744C931 632.744 658 768.744 446 980.744C247 1178.74 115 1437.74 115 1626.74C115 1716.74 125 1744.74 174 1796.74C212 1836.74 213 1837.74 219 1941.74C231 2115.74 251 2205.74 305 2326.74L355 2436.74L355 2644.74C355 3072.74 414 3336.74 538 3466.74C589 3518.74 622 3524.74 691 3490.74ZM1702 392.744C1796 349.744 1829 224.744 1769 139.744C1733 88.7435 1683 61.7435 1625 61.7435C1504 62.7435 1415 189.744 1460 297.744C1502 399.744 1600 438.744 1702 392.744Z" sodipodi:nodetypes="ccccccccccccccccccccccccccccccccccccccccccccccccccccccccccccccccccccccccc"/>
  <path id="shape3" transform="translate(4531.2745792448, 4001.58876148308)" fill="#000000" stroke-opacity="0" stroke="#000000" stroke-width="0" stroke-linecap="square" stroke-linejoin="bevel" d="M117.725 400.411C-13.2746 332.411 -40.2746 160.411 63.7254 62.4113C184.725 -49.5887 376.725 -4.58877 427.725 147.411C442.725 192.411 441.725 214.411 423.725 274.411C385.725 405.411 239.725 464.411 117.725 400.411ZM330.725 329.411C362.725 296.411 369.725 283.411 366.725 256.411C364.725 228.411 359.725 222.411 335.725 220.411C298.725 216.411 244.725 251.411 224.725 292.411C205.725 333.411 204.725 340.411 220.725 356.411C245.725 381.411 289.725 370.411 330.725 329.411Z" sodipodi:nodetypes="ccccccccccc"/>
  <path id="shape4" transform="translate(5950.31290890402, 4001.05917609686)" fill="#000000" stroke-opacity="0" stroke="#000000" stroke-width="0" stroke-linecap="square" stroke-linejoin="bevel" d="M141.687 413.941C82.687 387.941 49.687 357.941 24.687 307.941C-71.313 119.941 130.687 -72.0591 320.687 26.9409C379.687 57.9409 413.687 99.9409 430.687 162.941C473.687 320.941 291.687 478.941 141.687 413.941ZM337.687 323.941C363.687 295.941 369.687 280.941 367.687 255.941C365.687 229.941 359.687 222.941 337.687 220.941C285.687 214.941 209.687 278.941 209.687 329.941C209.687 381.941 286.687 378.941 337.687 323.941Z" sodipodi:nodetypes="cccccccccc"/>
  <path id="shape5" transform="translate(5237.95808411559, 3739.04179735753)" fill="#000000" stroke-opacity="0" stroke="#000000" stroke-width="0" stroke-linecap="square" stroke-linejoin="bevel" d="M31.0419 248.958C-17.9581 218.958 -7.95808 144.958 54.0419 75.9582C153.042 -38.0418 330.042 -21.0418 413.042 108.958C447.042 162.958 451.042 211.958 422.042 240.958C398.042 264.958 415.042 262.958 218.042 264.958C83.0419 265.958 55.0419 262.958 31.0419 248.958ZM362.042 204.958C382.042 184.958 235.042 168.958 146.042 181.958C74.0419 192.958 63.0419 202.958 107.042 213.958C144.042 223.958 351.042 215.958 362.042 204.958Z" sodipodi:nodetypes="cccccccccc"/>
  <path id="shape6" transform="translate(5044.80288013579, 3142.75974619831)" fill="#000000" stroke-opacity="0" stroke="#000000" stroke-width="0" stroke-linecap="square" stroke-linejoin="bevel" d="M380.197 479.24C374.197 475.24 357.197 453.24 342.197 429.24C307.197 375.24 262.197 347.24 209.197 347.24C164.197 347.24 133.197 370.24 103.197 425.24C81.1971 466.24 34.1971 470.24 9.19712 432.24C-31.8029 370.24 71.1971 250.24 181.197 232.24L223.197 226.24L227.197 161.24C230.197 107.24 235.197 93.2403 260.197 66.2403C315.197 9.24026 390.197 -12.7597 466.197 7.24026C556.197 31.2403 605.197 90.2403 605.197 176.24L605.197 225.24L648.197 232.24C721.197 244.24 790.197 299.24 819.197 368.24C839.197 416.24 823.197 451.24 778.197 455.24C750.197 458.24 743.197 453.24 721.197 418.24C689.197 368.24 659.197 347.24 617.197 347.24C568.197 347.24 530.197 371.24 485.197 432.24C453.197 475.24 439.197 487.24 417.197 487.24C402.197 487.24 385.197 483.24 380.197 479.24Z" sodipodi:nodetypes="cccccccccccccccccccc"/>
  <path id="shape7" transform="translate(3160, 2785.73670761173)" fill="#000000" stroke-opacity="0" stroke="#000000" stroke-width="0" stroke-linecap="square" stroke-linejoin="bevel" d="M108 194.263C48 155.263 0 120.263 0 115.263C0 110.263 15 86.2633 33 62.2633C78 4.2633 127 -12.7367 187 9.2633C280 45.2633 311 141.263 257 223.263C242 246.263 226 264.263 222 264.263C218 264.263 167 232.263 108 194.263Z" sodipodi:nodetypes="ccccccc"/>
  <path id="shape8" transform="translate(7294.92034414585, 2531.203663508)" fill="#000000" stroke-opacity="0" stroke="#000000" stroke-width="0" stroke-linecap="square" stroke-linejoin="bevel" d="M51.0797 248.796C-59.9203 150.796 24.0797 -24.2037 168.08 2.79634C278.08 23.7963 316.08 168.796 231.08 246.796C200.08 274.796 188.08 278.796 140.08 278.796C94.0797 278.796 81.0797 274.796 51.0797 248.796Z" sodipodi:nodetypes="ccccc"/>
  <path id="shape9" transform="translate(3652.73141432694, 2209.93342232329)" fill="#000000" stroke-opacity="0" stroke="#000000" stroke-width="0" stroke-linecap="square" stroke-linejoin="bevel" d="M66.2685 257.067C-23.7315 197.067 -21.7315 76.0666 70.2685 20.0666C161.269 -35.9334 280.269 32.0666 280.269 140.067C280.269 251.067 157.269 318.067 66.2685 257.067Z" sodipodi:nodetypes="cccc"/>
 </g>
</svg>
